<svg xmlns="http://www.w3.org/2000/svg" width="80" height="80" viewBox="0 0 80 80" fill="none">
<g clip-path="url(#clip0_43_114)">
<path fill-rule="evenodd" clip-rule="evenodd" d="M38.9672 0C39.3341 0 39.6316 0.297485 39.6316 0.664452V10.3652C48.6526 10.6219 56.8145 14.3094 62.8588 20.169C62.8828 20.1892 62.9054 20.2111 62.9263 20.2346C69.416 26.5599 73.446 35.3969 73.446 45.1754C73.446 47.3711 73.2422 49.5203 72.8535 51.6043C72.7862 51.9651 72.4393 52.203 72.0785 52.1357C71.7178 52.0684 71.4799 51.7214 71.5472 51.3607C71.8613 49.6765 72.0499 47.9477 72.1021 46.1847H56.5515C56.5628 49.9473 56.1876 53.8961 55.2807 57.9682H60.4877C60.8547 57.9682 61.1522 58.2657 61.1522 58.6327C61.1522 58.9996 60.8547 59.2971 60.4877 59.2971H54.9667C54.1728 62.4745 53.0498 65.722 51.53 69.0101H61.7407C61.8601 69.0101 61.972 69.0416 62.0688 69.0966C63.2931 67.8966 64.4257 66.6033 65.4553 65.2282C65.6752 64.9344 66.0916 64.8746 66.3854 65.0945C66.6791 65.3145 66.739 65.7309 66.519 66.0247C60.242 74.4084 50.2727 79.8712 39.0222 79.9977C39.004 79.9992 38.9857 80 38.9672 80C38.9531 80 38.9393 79.9996 38.9254 79.9987C38.8246 79.9996 38.7236 80 38.6225 80C19.5224 80 4.01446 64.6235 3.80017 45.5753C3.79869 45.5571 3.79793 45.5388 3.79793 45.5202C3.79793 45.5062 3.79836 45.4923 3.79922 45.4785C3.79836 45.3776 3.79793 45.2766 3.79793 45.1754C3.79793 35.3977 7.82732 26.5612 14.3162 20.236C14.338 20.2116 14.3615 20.1887 14.3866 20.1677C20.5844 14.16 29.0087 10.4359 38.3027 10.3523V0.664452C38.3027 0.297485 38.6002 0 38.9672 0ZM38.3027 11.6813C36.4663 11.6985 34.6653 11.8634 32.9109 12.1648C32.9052 12.1726 32.8989 12.1812 32.8921 12.1905C32.8485 12.2506 32.7832 12.3417 32.6983 12.4627C32.5287 12.7047 32.2811 13.0665 31.9735 13.5404C31.3583 14.4884 30.5033 15.8842 29.5511 17.6666C29.1661 18.3871 28.7654 19.1704 28.3584 20.0126H38.3027V11.6813ZM38.3027 21.3415H27.7341C26.4027 24.2593 25.0542 27.7724 24.0064 31.7438H38.3027V21.3415ZM39.6316 31.7438V21.3415H49.552C50.8836 24.2593 52.2322 27.7724 53.28 31.7438H39.6316ZM38.3027 33.0728H23.6715C22.8043 36.6836 22.2011 40.6427 22.084 44.8558H38.3027V33.0728ZM39.6316 44.8558V33.0728H53.6149C54.4822 36.6836 55.0854 40.6427 55.2025 44.8558H39.6316ZM38.3027 46.1847H22.0635C22.0519 49.9443 22.4362 53.8937 23.3684 57.9682H38.3027V46.1847ZM39.6316 57.9682V46.1847H55.223C55.2346 49.9443 54.8503 53.8937 53.918 57.9682H39.6316ZM38.3027 59.2971H23.6909C24.5064 62.4739 25.6606 65.7215 27.2242 69.0101H38.3027V59.2971ZM39.6316 69.0101V59.2971H53.5955C52.7799 62.4739 51.6256 65.7215 50.0619 69.0101H39.6316ZM38.3027 70.339H27.8775C29.1837 72.9118 30.7447 75.5069 32.5941 78.1103C32.5994 78.1177 32.6045 78.1253 32.6095 78.1329C34.4588 78.4681 36.361 78.6514 38.3027 78.6696V70.339ZM39.6316 78.6562V70.339H49.4087C48.1023 72.9118 46.5412 75.5069 44.6917 78.1102C44.6884 78.1149 44.6851 78.1197 44.6819 78.1244C43.0373 78.4249 41.3507 78.6053 39.6316 78.6562ZM46.5809 77.7199C51.9104 76.4211 56.7407 73.8471 60.7306 70.339H50.8951C49.689 72.7831 48.2602 75.2474 46.5809 77.7199ZM30.713 77.7318C29.0304 75.2553 27.5989 72.787 26.391 70.339H16.5141C20.5158 73.8576 25.3636 76.4368 30.713 77.7318ZM15.1757 69.0963C15.2724 69.0414 15.3841 69.0101 15.5032 69.0101H25.7561C24.2365 65.722 23.1135 62.4745 22.3197 59.2971H8.2404C9.95288 62.9752 12.3136 66.2905 15.1757 69.0963ZM7.65655 57.9682H22.0057C21.0989 53.8961 20.7237 49.9473 20.735 46.1847H5.14174C5.26494 50.3478 6.14782 54.3203 7.65655 57.9682ZM5.12832 44.8558H20.7551C20.8692 40.6499 21.4561 36.6919 22.3057 33.0728H7.37997C5.96128 36.7326 5.16714 40.7039 5.12832 44.8558ZM7.9284 31.7438H22.633C23.6504 27.7992 24.9624 24.2901 26.2764 21.3415H15.087C12.0874 24.3038 9.64426 27.8282 7.9284 31.7438ZM16.5129 20.0126H26.8858C27.3959 18.9311 27.8994 17.9379 28.379 17.0404C29.351 15.221 30.2256 13.7927 30.8588 12.817C30.9212 12.7209 30.9812 12.6292 31.0388 12.5419C25.5599 13.81 20.5959 16.4223 16.5129 20.0126ZM56.5314 44.8558H72.1156C72.0768 40.7039 71.2826 36.7326 69.8639 33.0728H54.9807C55.8304 36.6919 56.4173 40.6499 56.5314 44.8558ZM54.6534 31.7438H69.3155C67.5997 27.8282 65.1565 24.3038 62.157 21.3415H51.0098C52.3238 24.2901 53.6359 27.7992 54.6534 31.7438ZM50.4003 20.0126H60.7312C56.6604 16.4329 51.7139 13.8255 46.2545 12.5532C46.3098 12.6371 46.3673 12.725 46.427 12.817C47.0603 13.7927 47.935 15.221 48.907 17.0404C49.3866 17.9379 49.8902 18.9311 50.4003 20.0126ZM44.3808 12.1729C44.3849 12.1785 44.3892 12.1843 44.3937 12.1905C44.4373 12.2507 44.5027 12.3417 44.5875 12.4627C44.7572 12.7047 45.0047 13.0665 45.3123 13.5404C45.9276 14.4884 46.7826 15.8842 47.735 17.6666C48.1199 18.3871 48.5206 19.1705 48.9277 20.0126H39.6316V11.6947C41.246 11.7425 42.8316 11.9045 44.3808 12.1729ZM7.34177 2.11803C7.04016 2.1091 6.76106 2.30785 6.68041 2.6121C6.04552 5.00711 4.78402 6.79073 3.32212 7.58182C3.0941 7.70522 2.96725 7.9427 2.97403 8.18529C2.96724 8.42806 3.09428 8.6657 3.32255 8.78901C4.7839 9.57842 6.04544 11.3627 6.6804 13.7585C6.76104 14.0627 7.04014 14.2615 7.34177 14.2526C7.64355 14.2615 7.92274 14.0625 8.00323 13.7581C8.63656 11.3627 9.89848 9.57854 11.3608 8.78909C11.5892 8.66581 11.7163 8.42813 11.7095 8.1853C11.7163 7.94264 11.5894 7.7051 11.3613 7.58174C9.89836 6.79061 8.63647 5.00706 8.00322 2.61248C7.92272 2.30806 7.64354 2.10909 7.34177 2.11803ZM9.87069 8.18502C8.82451 7.36374 7.96137 6.16891 7.34137 4.75026C6.72098 6.16886 5.85809 7.36371 4.81239 8.18502C5.85819 9.0059 6.72104 10.2011 7.34137 11.6199C7.96131 10.201 8.8244 9.00588 9.87069 8.18502ZM15.2627 7.02138C15.5611 7.01627 15.8358 7.21409 15.9158 7.51551C16.2749 8.86909 16.978 9.83293 17.7426 10.2465C17.9681 10.3685 18.0946 10.602 18.091 10.8417C18.0946 11.0814 17.9682 11.3148 17.7428 11.4368C16.9779 11.851 16.2749 12.8145 15.9158 14.1684C15.8359 14.4699 15.5611 14.6677 15.2627 14.6626C14.9643 14.6677 14.6895 14.4699 14.6096 14.1684C14.2504 12.8144 13.5479 11.851 12.7827 11.4369C12.5573 11.3149 12.4307 11.0814 12.4344 10.8417C12.4307 10.6019 12.5574 10.3684 12.7829 10.2464C13.5478 9.83291 14.2504 8.86925 14.6096 7.51551C14.6895 7.21409 14.9643 7.01627 15.2627 7.02138ZM15.2627 9.4634C14.9732 9.99562 14.6199 10.4648 14.2109 10.8418C14.6199 11.2189 14.9732 11.6881 15.2627 12.2203C15.5524 11.688 15.9057 11.2189 16.3146 10.8418C15.9057 10.4648 15.5524 9.99564 15.2627 9.4634ZM66.255 10.6845C66.773 11.8073 67.4697 12.7627 68.3068 13.4459C67.4696 14.1287 66.7729 15.0839 66.255 16.207C65.7366 15.0838 65.0397 14.1287 64.203 13.4459C65.0397 12.7627 65.7366 11.8074 66.255 10.6845ZM62.3798 13.4461C62.3738 13.2043 62.5006 12.9679 62.7279 12.8448C63.9667 12.1746 65.0505 10.6527 65.5973 8.59191C65.6777 8.28889 65.955 8.09057 66.2552 8.09789C66.5555 8.09057 66.8328 8.28897 66.9131 8.59205C67.4594 10.653 68.5422 12.1745 69.7822 12.8447C70.0097 12.9677 70.1366 13.2042 70.1307 13.4461C70.1366 13.6882 70.0096 13.9249 69.7819 14.0478C68.5422 14.7169 67.4595 16.2376 66.9132 18.3001C66.8329 18.6033 66.5555 18.8017 66.2552 18.7944C65.9549 18.8017 65.6777 18.6034 65.5973 18.3003C65.0505 16.2379 63.9667 14.7168 62.7283 14.0476C62.5007 13.9247 62.3738 13.6881 62.3798 13.4461ZM14.0804 47.754C13.7813 47.7483 13.5058 47.9465 13.4259 48.2486C13.0154 49.8006 12.2053 50.9213 11.3071 51.407C11.0811 51.5292 10.9545 51.7635 10.9587 52.0038C10.9545 52.244 11.0811 52.4783 11.3071 52.6005C12.2052 53.0862 13.0154 54.2074 13.4259 55.759C13.5058 56.061 13.7814 56.2592 14.0805 56.2535C14.3793 56.2592 14.6547 56.0613 14.7348 55.7596C15.147 54.2075 15.9573 53.0861 16.855 52.6004C17.0809 52.4782 17.2075 52.244 17.2033 52.0038C17.2075 51.7635 17.0809 51.5293 16.855 51.4071C15.9572 50.9214 15.147 49.8005 14.7348 48.248C14.6547 47.9462 14.3793 47.7483 14.0804 47.754ZM15.4106 52.0038C14.8848 51.5385 14.4368 50.9368 14.081 50.2454C13.7255 50.9368 13.2775 51.5385 12.7516 52.0038C13.2775 52.4692 13.7255 53.0709 14.081 53.7624C14.4368 53.071 14.8848 52.4692 15.4106 52.0038ZM69.428 51.5206C69.7317 51.5091 70.0135 51.7084 70.0947 52.0144C70.9566 55.2633 72.6773 57.7212 74.7111 58.8204C74.9411 58.9447 75.0683 59.1852 75.0593 59.43C75.0683 59.6746 74.9413 59.915 74.7114 60.0394C72.6773 61.1402 70.9566 63.5968 70.0947 66.8471C70.0136 67.1531 69.7317 67.3524 69.428 67.341C69.1244 67.3524 68.8425 67.1531 68.7614 66.847C67.9001 63.5968 66.1794 61.1403 64.1448 60.0395C63.9149 59.9151 63.7878 59.6747 63.7969 59.43C63.7878 59.1852 63.915 58.9447 64.1451 58.8203C66.1794 57.7212 67.9001 55.2634 68.7614 52.0145C68.8425 51.7084 69.1244 51.5091 69.428 51.5206ZM69.4282 54.236C68.554 56.4402 67.2554 58.2669 65.6609 59.4302C67.2553 60.594 68.5539 62.4202 69.4282 64.625C70.3027 62.4202 71.6013 60.594 73.1955 59.4302C71.6012 58.2669 70.3026 56.4402 69.4282 54.236ZM75.0789 66.0697C74.7795 66.0636 74.5036 66.2619 74.4236 66.5642C74.0131 68.1155 73.2031 69.2353 72.3048 69.7211C72.0786 69.8434 71.9518 70.0781 71.9564 70.3186C71.9518 70.5592 72.0786 70.7938 72.3048 70.9161C73.203 71.4019 74.013 72.5216 74.4235 74.0744C74.5035 74.3768 74.7795 74.5752 75.0789 74.5691C75.3784 74.5752 75.6544 74.3768 75.7343 74.0744C76.1448 72.5216 76.9548 71.4018 77.8527 70.9161C78.0788 70.7937 78.2055 70.5591 78.2009 70.3186C78.2055 70.0781 78.0788 69.8435 77.8527 69.7212C76.9548 69.2354 76.1447 68.1155 75.7343 66.5642C75.6543 66.2619 75.3783 66.0636 75.0789 66.0697ZM76.409 70.3186C75.8829 69.8533 75.4346 69.2516 75.0789 68.5599C74.7232 69.2516 74.2749 69.8533 73.7486 70.3186C74.2749 70.7839 74.7232 71.3858 75.0789 72.0778C75.4346 71.3858 75.8829 70.7839 76.409 70.3186ZM3.87617 66.9656C3.57569 66.958 3.29814 67.1564 3.21774 67.4597C2.67086 69.5223 1.58806 71.0438 0.348559 71.714C0.121345 71.8368 -0.0054894 72.073 0.000182398 72.3146C-0.0054849 72.5562 0.121276 72.7922 0.348394 72.9151C1.58812 73.5859 2.67089 75.107 3.21774 77.1695C3.29814 77.4728 3.57569 77.6712 3.87617 77.6636C4.17665 77.6712 4.4542 77.4728 4.53461 77.1695C5.08145 75.107 6.16422 73.5859 7.40395 72.9151C7.63107 72.7922 7.75783 72.5562 7.75216 72.3146C7.75783 72.073 7.631 71.8368 7.40378 71.714C6.16428 71.0438 5.08148 69.5223 4.53461 67.4597C4.4542 67.1564 4.17665 66.958 3.87617 66.9656ZM5.92794 72.3147C5.09095 71.6312 4.39425 70.6754 3.87617 69.5518C3.3581 70.6754 2.66139 71.6312 1.8244 72.3147C2.66135 72.9983 3.35807 73.9539 3.87617 75.0775C4.39427 73.9539 5.09099 72.9983 5.92794 72.3147Z" fill="#BD944E"/>
</g>
<defs>
<clipPath id="clip0_43_114">
<rect width="80" height="80" fill="white"/>
</clipPath>
</defs>
</svg>